<mxfile host="app.diagrams.net" modified="2024-02-27T03:04:14.632Z" agent="Mozilla/5.0 (Windows NT 10.0; Win64; x64) AppleWebKit/537.36 (KHTML, like Gecko) Chrome/121.0.0.0 Safari/537.36" etag="xjO1iuWJkUFKg4xi2VTH" version="23.1.7" type="device">
  <diagram name="第 1 页" id="VFYfww_sdWvGYr7hJFIg">
    <mxGraphModel dx="1434" dy="746" grid="1" gridSize="10" guides="1" tooltips="1" connect="1" arrows="1" fold="1" page="1" pageScale="1" pageWidth="827" pageHeight="1169" math="0" shadow="0">
      <root>
        <mxCell id="0" />
        <mxCell id="1" parent="0" />
        <mxCell id="7KIA_immedqvToHCkOJM-1" value="浏览器" style="rounded=0;whiteSpace=wrap;html=1;" vertex="1" parent="1">
          <mxGeometry x="100" y="70" width="440" height="60" as="geometry" />
        </mxCell>
        <mxCell id="7KIA_immedqvToHCkOJM-2" value="api网关" style="rounded=0;whiteSpace=wrap;html=1;" vertex="1" parent="1">
          <mxGeometry x="100" y="140" width="440" height="60" as="geometry" />
        </mxCell>
        <mxCell id="7KIA_immedqvToHCkOJM-3" value="sys-api" style="rounded=0;whiteSpace=wrap;html=1;" vertex="1" parent="1">
          <mxGeometry x="100" y="290" width="80" height="60" as="geometry" />
        </mxCell>
        <mxCell id="7KIA_immedqvToHCkOJM-4" value="tao-api" style="rounded=0;whiteSpace=wrap;html=1;" vertex="1" parent="1">
          <mxGeometry x="190" y="290" width="80" height="60" as="geometry" />
        </mxCell>
        <mxCell id="7KIA_immedqvToHCkOJM-5" value="jd-api" style="rounded=0;whiteSpace=wrap;html=1;" vertex="1" parent="1">
          <mxGeometry x="280" y="290" width="80" height="60" as="geometry" />
        </mxCell>
        <mxCell id="7KIA_immedqvToHCkOJM-6" value="doudian-api" style="rounded=0;whiteSpace=wrap;html=1;" vertex="1" parent="1">
          <mxGeometry x="370" y="290" width="80" height="60" as="geometry" />
        </mxCell>
        <mxCell id="7KIA_immedqvToHCkOJM-7" value="pdd-api" style="rounded=0;whiteSpace=wrap;html=1;" vertex="1" parent="1">
          <mxGeometry x="460" y="290" width="80" height="60" as="geometry" />
        </mxCell>
        <mxCell id="7KIA_immedqvToHCkOJM-8" value="Redis" style="rounded=0;whiteSpace=wrap;html=1;" vertex="1" parent="1">
          <mxGeometry x="100" y="450" width="120" height="60" as="geometry" />
        </mxCell>
        <mxCell id="7KIA_immedqvToHCkOJM-9" value="MySQL" style="rounded=0;whiteSpace=wrap;html=1;" vertex="1" parent="1">
          <mxGeometry x="240" y="450" width="300" height="60" as="geometry" />
        </mxCell>
        <mxCell id="7KIA_immedqvToHCkOJM-10" value="Nacos服务注册中心" style="rounded=0;whiteSpace=wrap;html=1;" vertex="1" parent="1">
          <mxGeometry x="100" y="213" width="440" height="60" as="geometry" />
        </mxCell>
        <mxCell id="7KIA_immedqvToHCkOJM-11" value="Nacos配置中心" style="rounded=0;whiteSpace=wrap;html=1;" vertex="1" parent="1">
          <mxGeometry x="100" y="362" width="440" height="60" as="geometry" />
        </mxCell>
      </root>
    </mxGraphModel>
  </diagram>
</mxfile>
